<?xml version="1.0" standalone="no"?>
<!DOCTYPE svg PUBLIC "-//W3C//DTD SVG 20010904//EN"
 "http://www.w3.org/TR/2001/REC-SVG-20010904/DTD/svg10.dtd">
<svg version="1.0" xmlns="http://www.w3.org/2000/svg"
 width="76.000000pt" height="97.000000pt" viewBox="0 0 76.000000 97.000000"
 preserveAspectRatio="xMidYMid meet">
<metadata>
Created by potrace 1.10, written by Peter Selinger 2001-2011
</metadata>
<g transform="translate(0.000000,97.000000) scale(0.100000,-0.100000)"
fill="#000000" stroke="none">
<path d="M460 642 c-119 -58 -151 -100 -151 -196 0 -37 2 -75 6 -85 3 -10 31
-36 63 -57 51 -35 63 -38 122 -39 57 0 71 4 110 32 69 48 80 64 84 124 5 80
-40 179 -81 179 -7 0 -13 3 -13 8 0 6 -91 53 -101 52 -2 -1 -20 -8 -39 -18z
m117 -57 c40 -22 73 -43 73 -47 0 -4 -8 -9 -18 -12 -10 -4 -44 -22 -76 -41
l-57 -34 -52 33 c-29 18 -63 37 -76 41 -15 4 -20 10 -13 17 13 13 136 86 142
84 3 0 38 -19 77 -41z m-112 -141 c17 -9 20 -24 23 -88 l3 -78 -63 36 c-35 20
-68 40 -75 44 -9 5 -18 109 -14 154 1 4 25 -7 54 -25 29 -17 61 -37 72 -43z
m197 -1 c-3 -43 -9 -81 -16 -85 -6 -4 -39 -24 -73 -43 l-63 -36 0 75 0 75 65
36 c36 20 67 41 71 46 14 24 19 3 16 -68z"/>
</g>
</svg>
